<svg width="472" height="295" viewBox="0 0 472 295" fill="none" xmlns="http://www.w3.org/2000/svg">
<path d="M130.633 11.9875L220.243 1.14919L227.457 189.927L170.283 196.842L130.633 11.9875Z" fill="url(#paint0_linear_2157_36)"/>
<path d="M339.449 9.82324L249.722 0.000207133L244.646 188.848L301.895 195.115L339.449 9.82324Z" fill="url(#paint1_linear_2157_36)"/>
<path d="M119.482 41.2261L45.3027 63.7586L105.014 214.516L152.344 200.139L119.482 41.2261Z" fill="url(#paint2_linear_2157_36)"/>
<path d="M350.93 38.9333L425.36 60.6245L367.359 212.048L319.87 198.209L350.93 38.9333Z" fill="url(#paint3_linear_2157_36)"/>
<path d="M49.3945 112.142L0.249811 137.662L61.8895 235.721L93.2457 219.438L49.3945 112.142Z" fill="url(#paint4_linear_2157_36)"/>
<path d="M421.816 109.051L471.247 134.014L410.721 232.764L379.183 216.837L421.816 109.051Z" fill="url(#paint5_linear_2157_36)"/>
<g filter="url(#filter0_d_2157_36)">
<path d="M27.3603 227.944C16.8946 209.407 11.6618 200.139 14.5284 194.068C17.395 187.997 26.689 186.358 45.277 183.08L73.8095 178.049C85.8549 175.925 91.8776 174.863 96.2795 177.945C100.681 181.028 101.743 187.05 103.867 199.096L113.121 251.577C115.245 263.622 116.307 269.645 113.225 274.046C110.142 278.448 104.12 279.51 92.0744 281.634L63.8075 286.618C45.1955 289.9 35.8895 291.541 31.1245 286.864C26.3594 282.186 28.0277 271.58 31.3642 250.367C32.1498 245.372 32.3764 240.98 31.6766 237.901C31.0498 235.143 29.4819 231.701 27.3603 227.944Z" fill="url(#paint6_linear_2157_36)"/>
</g>
<g filter="url(#filter1_d_2157_36)">
<path d="M443.137 227.944C453.602 209.407 458.835 200.139 455.969 194.068C453.102 187.997 443.808 186.358 425.22 183.08L396.688 178.049C384.642 175.925 378.619 174.863 374.218 177.945C369.816 181.028 368.754 187.05 366.63 199.096L357.376 251.577C355.252 263.622 354.19 269.645 357.272 274.046C360.355 278.448 366.377 279.51 378.423 281.634L406.69 286.618C425.302 289.9 434.608 291.541 439.373 286.864C444.138 282.186 442.469 271.58 439.133 250.367C438.347 245.372 438.121 240.98 438.82 237.901C439.447 235.143 441.015 231.701 443.137 227.944Z" fill="url(#paint7_linear_2157_36)"/>
</g>
<g filter="url(#filter2_d_2157_36)">
<path d="M59.5688 197.855C59.5688 177.839 59.5688 167.832 65.9758 160.498C72.3827 153.165 81.8044 151.889 100.648 149.336C131.518 145.155 178.123 140.602 234.707 140.602C291.29 140.602 337.895 145.155 368.766 149.336C387.609 151.889 397.031 153.165 403.438 160.498C409.845 167.832 409.845 177.839 409.845 197.855V216.345C409.845 242.775 409.845 255.99 401.567 263.687C393.289 271.384 380.014 270.418 353.463 268.486C314.743 265.668 265.044 262.55 234.707 262.55C204.37 262.55 154.671 265.668 115.95 268.486C89.3999 270.418 76.1247 271.384 67.8468 263.687C59.5688 255.99 59.5688 242.775 59.5688 216.345V197.855Z" fill="url(#paint8_linear_2157_36)"/>
</g>
<path d="M139.273 191.897C141.016 191.897 142.511 192.229 143.756 192.894C145.002 193.558 146.019 194.388 146.808 195.384C147.638 196.339 148.24 197.398 148.614 198.56C148.987 199.681 149.174 200.719 149.174 201.674C149.174 202.504 149.029 203.21 148.738 203.791C148.447 204.331 148.012 204.601 147.43 204.601C146.559 204.601 145.894 204.435 145.438 204.102C145.023 203.77 144.711 203.376 144.504 202.919C144.296 202.421 144.109 201.881 143.943 201.3C143.819 200.719 143.611 200.2 143.32 199.743C143.03 199.245 142.615 198.83 142.075 198.498C141.535 198.166 140.726 198 139.646 198C137.197 198 135.267 199.245 133.855 201.736C132.485 204.227 131.8 207.943 131.8 212.883C131.8 217.159 132.465 220.563 133.793 223.095C135.163 225.586 137.093 226.831 139.584 226.831C141.328 226.831 142.594 226.479 143.383 225.773C144.213 225.026 144.815 224.216 145.189 223.344C145.604 222.431 145.936 221.621 146.185 220.916C146.476 220.168 146.974 219.795 147.679 219.795C148.634 219.795 149.319 220.065 149.734 220.604C150.191 221.144 150.419 221.829 150.419 222.659C150.419 223.614 150.15 224.694 149.61 225.897C149.07 227.06 148.302 228.16 147.306 229.198C146.351 230.236 145.168 231.107 143.756 231.813C142.386 232.519 140.85 232.872 139.148 232.872C136.824 232.872 134.727 232.374 132.859 231.377C131.032 230.381 129.476 228.969 128.189 227.143C126.943 225.316 125.968 223.137 125.262 220.604C124.598 218.072 124.265 215.249 124.265 212.135C124.265 209.022 124.618 206.22 125.324 203.729C126.03 201.238 127.026 199.121 128.313 197.377C129.6 195.634 131.178 194.284 133.046 193.33C134.914 192.375 136.99 191.897 139.273 191.897ZM153.79 212.945C153.79 210.579 153.997 208.378 154.413 206.344C154.828 204.269 155.409 202.463 156.156 200.927C156.903 199.349 157.775 198.083 158.772 197.128C159.768 196.132 160.847 195.509 162.01 195.26C162.674 195.135 163.317 194.907 163.94 194.575C164.563 194.201 165.185 193.828 165.808 193.454C166.431 193.08 167.074 192.769 167.739 192.52C168.444 192.229 169.212 192.084 170.043 192.084C171.786 192.084 173.385 192.665 174.838 193.828C176.291 194.99 177.515 196.526 178.512 198.436C179.549 200.304 180.338 202.421 180.878 204.787C181.459 207.112 181.75 209.458 181.75 211.824C181.75 214.19 181.542 216.598 181.127 219.048C180.712 221.497 179.985 223.739 178.947 225.773C177.91 227.766 176.477 229.405 174.651 230.692C172.866 231.938 170.582 232.56 167.801 232.56C165.019 232.56 162.715 232 160.889 230.879C159.104 229.717 157.671 228.201 156.592 226.333C155.554 224.465 154.828 222.369 154.413 220.044C153.997 217.678 153.79 215.311 153.79 212.945ZM164.376 213.443C163.587 213.443 163.027 213.007 162.695 212.135C162.363 211.264 162.134 210.309 162.01 209.271C161.927 208.192 161.885 207.216 161.885 206.344C161.885 205.472 161.823 205.037 161.698 205.037C161.366 205.037 161.076 205.68 160.827 206.967C160.619 208.212 160.515 210.164 160.515 212.82C160.515 214.149 160.598 215.664 160.764 217.366C160.972 219.068 161.345 220.687 161.885 222.223C162.466 223.718 163.234 224.984 164.189 226.022C165.185 227.06 166.472 227.579 168.05 227.579C169.628 227.579 170.873 227.018 171.786 225.897C172.7 224.777 173.385 223.427 173.841 221.85C174.339 220.231 174.651 218.549 174.775 216.806C174.941 215.021 175.024 213.505 175.024 212.26C175.024 211.015 174.921 209.562 174.713 207.901C174.547 206.199 174.256 204.601 173.841 203.106C173.426 201.57 172.886 200.283 172.222 199.245C171.599 198.166 170.831 197.626 169.918 197.626C169.254 197.626 168.735 197.938 168.361 198.56C168.029 199.183 167.78 199.951 167.614 200.864C167.49 201.778 167.427 202.774 167.427 203.853C167.427 205.265 167.49 206.593 167.614 207.839C167.739 209.043 167.801 209.852 167.801 210.267C167.801 211.015 167.552 211.741 167.054 212.447C166.555 213.111 165.663 213.443 164.376 213.443ZM185.761 214.751C185.761 212.758 185.761 210.786 185.761 208.835C185.803 206.842 185.844 204.85 185.886 202.857C185.927 201.446 185.99 200.117 186.073 198.872C186.156 197.585 186.322 196.464 186.571 195.509C186.82 194.513 187.173 193.745 187.629 193.205C188.128 192.624 188.792 192.333 189.622 192.333C190.701 192.333 191.656 192.852 192.487 193.89C193.317 194.886 194.064 196.153 194.728 197.689C195.434 199.183 196.057 200.823 196.596 202.608C197.136 204.352 197.655 205.991 198.153 207.527C198.693 209.022 199.191 210.288 199.648 211.326C200.146 212.322 200.644 212.82 201.142 212.82C201.765 212.82 202.346 212.322 202.886 211.326C203.426 210.288 203.965 209.022 204.505 207.527C205.086 205.991 205.667 204.331 206.249 202.546C206.83 200.761 207.432 199.121 208.054 197.626C208.719 196.09 209.424 194.824 210.172 193.828C210.96 192.79 211.811 192.271 212.725 192.271C213.929 192.271 214.842 192.624 215.465 193.33C216.129 193.994 216.461 194.99 216.461 196.319V200.802C216.461 202.255 216.44 203.999 216.399 206.033C216.357 208.067 216.316 210.164 216.274 212.322C216.274 214.439 216.253 216.515 216.212 218.549C216.17 220.584 216.15 222.327 216.15 223.78C216.15 224.569 216.15 225.441 216.15 226.396C216.15 227.35 216.046 228.243 215.838 229.073C215.631 229.904 215.278 230.609 214.78 231.19C214.282 231.73 213.534 232 212.538 232C211.915 232 211.417 231.834 211.043 231.502C210.711 231.128 210.462 230.692 210.296 230.194C210.13 229.696 210.026 229.177 209.985 228.637C209.943 228.056 209.923 227.537 209.923 227.081C209.923 224.963 209.964 222.867 210.047 220.791C210.13 218.674 210.172 216.557 210.172 214.44C210.172 213.485 210.109 212.758 209.985 212.26C209.86 211.72 209.632 211.45 209.3 211.45C209.009 211.45 208.698 211.741 208.366 212.322C208.034 212.862 207.66 213.568 207.245 214.44C206.871 215.27 206.456 216.183 205.999 217.179C205.584 218.176 205.107 219.11 204.567 219.982C204.028 220.812 203.446 221.518 202.824 222.099C202.201 222.639 201.516 222.908 200.769 222.908C199.855 222.908 199.067 222.639 198.402 222.099C197.738 221.518 197.157 220.812 196.659 219.982C196.161 219.151 195.725 218.259 195.351 217.304C195.019 216.349 194.708 215.457 194.417 214.626C194.168 213.796 193.919 213.111 193.67 212.571C193.462 211.99 193.234 211.7 192.985 211.7C192.736 211.7 192.528 212.239 192.362 213.319C192.279 214.149 192.217 215.124 192.175 216.245C192.175 217.325 192.175 218.425 192.175 219.546C192.175 220.251 192.217 221.31 192.3 222.722C192.383 224.092 192.362 225.462 192.237 226.831C192.113 228.201 191.822 229.405 191.366 230.443C190.909 231.44 190.162 231.938 189.124 231.938C188.169 231.938 187.463 231.626 187.007 231.004C186.55 230.381 186.239 229.634 186.073 228.762C185.907 227.89 185.824 226.977 185.824 226.022C185.824 225.067 185.824 224.278 185.824 223.656C185.782 222.161 185.761 220.687 185.761 219.234C185.761 217.74 185.761 216.245 185.761 214.751ZM221.92 223.344V218.3L221.733 207.154V202.11C221.733 200.864 221.712 199.66 221.671 198.498C221.629 197.336 221.712 196.298 221.92 195.384C222.169 194.43 222.605 193.662 223.228 193.08C223.892 192.458 224.888 192.105 226.217 192.022C227.005 191.939 227.815 191.918 228.645 191.96C229.517 191.96 230.347 191.96 231.136 191.96C235.205 191.96 238.277 193.143 240.352 195.509C242.469 197.834 243.528 201.196 243.528 205.597C243.528 207.756 243.258 209.769 242.719 211.637C242.22 213.505 241.473 215.124 240.477 216.494C239.48 217.864 238.235 218.944 236.741 219.733C235.288 220.521 233.627 220.916 231.759 220.916C230.43 220.916 229.517 221.061 229.019 221.352C228.521 221.642 228.251 222.161 228.209 222.908C228.209 223.614 228.189 224.258 228.147 224.839C228.147 225.42 228.147 225.98 228.147 226.52C228.147 227.641 228.085 228.554 227.96 229.26C227.877 229.966 227.711 230.526 227.462 230.941C227.213 231.315 226.86 231.585 226.404 231.751C225.947 231.875 225.366 231.938 224.66 231.938C223.664 231.938 222.958 231.502 222.543 230.63C222.128 229.758 221.92 228.658 221.92 227.33V223.344ZM231.634 197.377C231.427 197.377 231.198 197.377 230.949 197.377C230.7 197.377 230.347 197.419 229.891 197.502C229.143 197.585 228.728 197.958 228.645 198.623C228.604 199.287 228.583 200.449 228.583 202.11C228.583 202.649 228.583 203.355 228.583 204.227C228.625 205.099 228.645 206.054 228.645 207.091C228.645 208.129 228.645 209.167 228.645 210.205C228.687 211.243 228.708 212.198 228.708 213.07C228.708 214.024 228.977 214.647 229.517 214.938C230.057 215.187 230.493 215.311 230.825 215.311C232.112 215.311 233.15 214.958 233.938 214.253C234.769 213.505 235.391 212.613 235.806 211.575C236.263 210.537 236.554 209.458 236.678 208.337C236.844 207.175 236.927 206.199 236.927 205.41C236.927 204.331 236.844 203.314 236.678 202.359C236.512 201.363 236.222 200.511 235.806 199.806C235.433 199.058 234.893 198.477 234.187 198.062C233.523 197.605 232.672 197.377 231.634 197.377ZM258.072 232.311C257.781 232.311 257.345 232.311 256.764 232.311C256.224 232.311 255.623 232.311 254.958 232.311C254.294 232.353 253.588 232.374 252.841 232.374C252.135 232.374 251.471 232.374 250.848 232.374C250.101 232.374 249.458 232.042 248.918 231.377C248.42 230.713 248.171 229.488 248.171 227.703C248.171 225.088 248.129 222.099 248.046 218.736C248.005 215.332 247.984 211.845 247.984 208.275C247.984 204.58 248.046 201.093 248.171 197.813C248.212 197.149 248.275 196.485 248.358 195.82C248.441 195.115 248.607 194.492 248.856 193.952C249.146 193.371 249.541 192.914 250.039 192.582C250.579 192.209 251.284 192.022 252.156 192.022C252.82 192.022 253.318 192.167 253.651 192.458C254.024 192.707 254.294 193.039 254.46 193.454C254.626 193.869 254.73 194.347 254.771 194.886C254.813 195.384 254.834 195.903 254.834 196.443C254.834 198.187 254.813 200.117 254.771 202.234C254.73 204.31 254.688 206.427 254.647 208.586C254.647 210.745 254.626 212.883 254.585 215C254.543 217.076 254.522 218.985 254.522 220.729C254.522 221.933 254.543 222.929 254.585 223.718C254.668 224.507 254.813 225.129 255.021 225.586C255.27 226.043 255.602 226.375 256.017 226.582C256.432 226.748 256.992 226.831 257.698 226.831C258.861 226.831 259.857 226.852 260.687 226.894C261.559 226.894 262.265 226.977 262.804 227.143C263.344 227.309 263.739 227.579 263.988 227.952C264.237 228.326 264.361 228.866 264.361 229.571C264.361 230.319 264.112 230.879 263.614 231.253C263.157 231.626 262.597 231.875 261.933 232C261.268 232.166 260.583 232.249 259.878 232.249C259.172 232.291 258.57 232.311 258.072 232.311ZM278.321 191.337C280.272 191.337 281.933 191.627 283.303 192.209C284.673 192.79 285.794 193.516 286.666 194.388C287.579 195.218 288.243 196.132 288.658 197.128C289.073 198.083 289.281 198.975 289.281 199.806C289.281 200.511 289.115 201.113 288.783 201.612C288.492 202.068 288.056 202.297 287.475 202.297C286.437 202.297 285.628 202.027 285.047 201.487C284.465 200.947 283.905 200.366 283.365 199.743C282.867 199.121 282.286 198.54 281.622 198C280.957 197.46 280.023 197.19 278.819 197.19C278.695 197.19 278.383 197.211 277.885 197.253C277.429 197.294 276.951 197.398 276.453 197.564C275.955 197.73 275.498 197.979 275.083 198.311C274.709 198.643 274.523 199.079 274.523 199.619C274.523 200.864 274.959 202.048 275.83 203.168C276.744 204.289 277.74 205.369 278.819 206.407C279.899 207.403 280.874 208.358 281.746 209.271C282.659 210.143 283.116 210.973 283.116 211.762C283.116 212.551 282.618 213.381 281.622 214.253C280.625 215.083 279.525 215.996 278.321 216.993C277.117 217.947 276.017 219.006 275.021 220.168C274.024 221.331 273.526 222.639 273.526 224.092C273.526 225.42 274.004 226.375 274.959 226.956C275.913 227.496 277.055 227.766 278.383 227.766C279.587 227.766 280.667 227.309 281.622 226.396C282.618 225.441 283.552 224.403 284.424 223.282C285.296 222.161 286.126 221.144 286.915 220.231C287.703 219.276 288.492 218.798 289.281 218.798C289.904 218.798 290.36 219.048 290.651 219.546C290.983 220.044 291.149 220.687 291.149 221.476C291.149 222.514 290.879 223.718 290.34 225.088C289.8 226.416 288.97 227.683 287.849 228.886C286.769 230.049 285.399 231.045 283.739 231.875C282.12 232.706 280.189 233.121 277.948 233.121C276.536 233.121 275.104 232.955 273.651 232.623C272.239 232.291 270.952 231.772 269.79 231.066C268.628 230.319 267.673 229.364 266.926 228.201C266.22 226.998 265.867 225.565 265.867 223.905C265.867 222.078 266.365 220.542 267.361 219.297C268.399 218.01 269.52 216.93 270.724 216.059C271.928 215.145 273.028 214.356 274.024 213.692C275.062 212.987 275.581 212.322 275.581 211.7C275.581 211.077 275.145 210.413 274.274 209.707C273.443 209.001 272.509 208.171 271.471 207.216C270.434 206.261 269.479 205.14 268.607 203.853C267.777 202.525 267.361 200.947 267.361 199.121C267.361 197.543 267.756 196.256 268.545 195.26C269.333 194.264 270.288 193.475 271.409 192.894C272.53 192.312 273.713 191.918 274.959 191.71C276.245 191.461 277.366 191.337 278.321 191.337ZM292.698 195.696C292.698 194.824 292.885 194.16 293.259 193.703C293.632 193.247 294.089 192.914 294.629 192.707C295.21 192.499 295.853 192.375 296.559 192.333C297.265 192.292 297.929 192.271 298.552 192.271H310.57C311.151 192.271 311.732 192.292 312.314 192.333C312.936 192.375 313.476 192.52 313.933 192.769C314.431 192.977 314.825 193.288 315.116 193.703C315.406 194.118 315.552 194.7 315.552 195.447C315.552 196.443 315.406 197.17 315.116 197.626C314.867 198.041 314.514 198.332 314.057 198.498C313.6 198.664 313.082 198.726 312.5 198.685C311.919 198.643 311.338 198.623 310.757 198.623C310.259 198.623 309.802 198.706 309.387 198.872C309.013 199.038 308.681 199.37 308.39 199.868C308.141 200.325 307.934 200.989 307.768 201.861C307.602 202.691 307.519 203.77 307.519 205.099C307.519 206.469 307.498 207.86 307.456 209.271C307.415 210.641 307.373 212.011 307.332 213.381L307.207 218.861C307.166 220.231 307.124 221.621 307.083 223.033C307.041 224.403 307.021 225.773 307.021 227.143C307.021 227.766 307 228.388 306.958 229.011C306.958 229.634 306.854 230.215 306.647 230.755C306.481 231.253 306.19 231.668 305.775 232C305.36 232.332 304.737 232.498 303.907 232.498C302.911 232.498 302.143 232.249 301.603 231.751C301.105 231.253 300.731 230.63 300.482 229.883C300.274 229.136 300.171 228.326 300.171 227.454C300.171 226.582 300.171 225.773 300.171 225.026C300.171 221.248 300.274 217.512 300.482 213.817C300.69 210.122 300.793 206.386 300.793 202.608C300.793 201.778 300.731 201.113 300.607 200.615C300.524 200.117 300.337 199.723 300.046 199.432C299.797 199.142 299.423 198.955 298.925 198.872C298.469 198.747 297.887 198.685 297.182 198.685C296.559 198.685 295.957 198.685 295.376 198.685C294.836 198.685 294.359 198.602 293.944 198.436C293.57 198.228 293.259 197.917 293.009 197.502C292.802 197.087 292.698 196.485 292.698 195.696ZM329.705 191.337C331.656 191.337 333.316 191.627 334.686 192.209C336.056 192.79 337.177 193.516 338.049 194.388C338.962 195.218 339.627 196.132 340.042 197.128C340.457 198.083 340.664 198.975 340.664 199.806C340.664 200.511 340.498 201.113 340.166 201.612C339.876 202.068 339.44 202.297 338.859 202.297C337.821 202.297 337.011 202.027 336.43 201.487C335.849 200.947 335.288 200.366 334.749 199.743C334.251 199.121 333.669 198.54 333.005 198C332.341 197.46 331.407 197.19 330.203 197.19C330.078 197.19 329.767 197.211 329.269 197.253C328.812 197.294 328.335 197.398 327.837 197.564C327.338 197.73 326.882 197.979 326.467 198.311C326.093 198.643 325.906 199.079 325.906 199.619C325.906 200.864 326.342 202.048 327.214 203.168C328.127 204.289 329.124 205.369 330.203 206.407C331.282 207.403 332.258 208.358 333.13 209.271C334.043 210.143 334.5 210.973 334.5 211.762C334.5 212.551 334.001 213.381 333.005 214.253C332.009 215.083 330.909 215.996 329.705 216.993C328.501 217.947 327.401 219.006 326.404 220.168C325.408 221.331 324.91 222.639 324.91 224.092C324.91 225.42 325.387 226.375 326.342 226.956C327.297 227.496 328.439 227.766 329.767 227.766C330.971 227.766 332.05 227.309 333.005 226.396C334.001 225.441 334.936 224.403 335.807 223.282C336.679 222.161 337.509 221.144 338.298 220.231C339.087 219.276 339.876 218.798 340.664 218.798C341.287 218.798 341.744 219.048 342.034 219.546C342.367 220.044 342.533 220.687 342.533 221.476C342.533 222.514 342.263 223.718 341.723 225.088C341.183 226.416 340.353 227.683 339.232 228.886C338.153 230.049 336.783 231.045 335.122 231.875C333.503 232.706 331.573 233.121 329.331 233.121C327.92 233.121 326.487 232.955 325.034 232.623C323.623 232.291 322.336 231.772 321.174 231.066C320.011 230.319 319.056 229.364 318.309 228.201C317.603 226.998 317.25 225.565 317.25 223.905C317.25 222.078 317.749 220.542 318.745 219.297C319.783 218.01 320.904 216.93 322.108 216.059C323.312 215.145 324.412 214.356 325.408 213.692C326.446 212.987 326.965 212.322 326.965 211.7C326.965 211.077 326.529 210.413 325.657 209.707C324.827 209.001 323.893 208.171 322.855 207.216C321.817 206.261 320.862 205.14 319.99 203.853C319.16 202.525 318.745 200.947 318.745 199.121C318.745 197.543 319.139 196.256 319.928 195.26C320.717 194.264 321.672 193.475 322.793 192.894C323.914 192.312 325.097 191.918 326.342 191.71C327.629 191.461 328.75 191.337 329.705 191.337Z" fill="white"/>
<g filter="url(#filter3_d_2157_36)">
<path d="M221.405 80.2031C226.701 63.9038 229.349 55.7541 234.238 55.7541C239.127 55.7541 241.775 63.9038 247.071 80.2031V80.2031C248.533 84.7053 249.265 86.9565 251.034 88.2415C252.802 89.5265 255.169 89.5265 259.903 89.5265V89.5265C277.041 89.5265 285.61 89.5265 287.121 94.1759C288.632 98.8252 281.699 103.862 267.834 113.936V113.936C264.004 116.718 262.089 118.109 261.414 120.189C260.738 122.268 261.47 124.519 262.933 129.021V129.021C268.229 145.321 270.877 153.47 266.922 156.344C262.967 159.217 256.034 154.18 242.169 144.107V144.107C238.339 141.324 236.424 139.933 234.238 139.933C232.052 139.933 230.137 141.324 226.307 144.107V144.107C212.442 154.18 205.509 159.217 201.554 156.344C197.6 153.47 200.248 145.321 205.544 129.021V129.021C207.006 124.519 207.738 122.268 207.062 120.189C206.387 118.109 204.472 116.718 200.642 113.936V113.936C186.777 103.862 179.844 98.8252 181.355 94.1759C182.866 89.5265 191.435 89.5265 208.573 89.5265V89.5265C213.307 89.5265 215.674 89.5265 217.442 88.2415C219.211 86.9565 219.943 84.7053 221.405 80.2031V80.2031Z" fill="url(#paint9_linear_2157_36)"/>
</g>
<g filter="url(#filter4_d_2157_36)">
<path d="M319.96 108.706C324.721 99.7512 327.101 95.274 329.916 95.2949C330.435 95.2987 330.95 95.3894 331.438 95.5632C334.091 96.5064 334.797 101.528 336.208 111.571V111.571C336.6 114.36 336.796 115.754 337.616 116.759C337.78 116.96 337.96 117.147 338.155 117.317C339.131 118.172 340.518 118.417 343.291 118.906V118.906C353.279 120.667 358.273 121.547 359.123 124.231C359.279 124.726 359.352 125.243 359.338 125.762C359.26 128.576 354.703 130.799 345.588 135.244V135.244C343.056 136.479 341.791 137.096 341.088 138.187C340.948 138.405 340.826 138.634 340.724 138.872C340.213 140.064 340.408 141.459 340.8 144.248V144.248C342.212 154.291 342.918 159.312 340.628 160.95C340.206 161.252 339.736 161.481 339.239 161.627C336.539 162.423 333.016 158.776 325.971 151.48V151.48C324.015 149.455 323.037 148.442 321.782 148.11C321.532 148.044 321.276 147.999 321.018 147.976C319.726 147.858 318.46 148.475 315.929 149.71V149.71C306.814 154.155 302.256 156.378 299.991 154.707C299.574 154.399 299.211 154.023 298.918 153.595C297.326 151.273 299.707 146.796 304.468 137.841V137.841C305.79 135.355 306.451 134.111 306.378 132.816C306.364 132.557 306.328 132.3 306.27 132.048C305.983 130.782 305.005 129.769 303.049 127.744V127.744C296.004 120.448 292.481 116.801 293.371 114.13C293.535 113.638 293.78 113.176 294.097 112.765C295.813 110.534 300.807 111.415 310.795 113.176V113.176C313.568 113.665 314.955 113.909 316.165 113.44C316.406 113.346 316.639 113.232 316.862 113.1C317.976 112.436 318.637 111.192 319.96 108.706V108.706Z" fill="url(#paint10_linear_2157_36)"/>
</g>
<g filter="url(#filter5_d_2157_36)">
<path d="M149.263 108.706C144.502 99.7512 142.121 95.274 139.306 95.2949C138.787 95.2987 138.273 95.3894 137.784 95.5632C135.132 96.5064 134.426 101.528 133.015 111.571V111.571C132.623 114.36 132.427 115.754 131.606 116.759C131.443 116.96 131.262 117.147 131.068 117.317C130.091 118.172 128.705 118.417 125.931 118.906V118.906C115.944 120.667 110.95 121.547 110.1 124.231C109.943 124.726 109.871 125.243 109.885 125.762C109.962 128.576 114.52 130.799 123.635 135.244V135.244C126.166 136.479 127.432 137.096 128.135 138.187C128.275 138.405 128.397 138.634 128.499 138.872C129.01 140.064 128.814 141.459 128.422 144.248V144.248C127.011 154.291 126.305 159.312 128.595 160.95C129.017 161.252 129.486 161.481 129.984 161.627C132.684 162.423 136.207 158.776 143.251 151.48V151.48C145.208 149.455 146.186 148.442 147.441 148.11C147.691 148.044 147.947 147.999 148.204 147.976C149.497 147.858 150.762 148.475 153.294 149.71V149.71C162.409 154.155 166.966 156.378 169.231 154.707C169.649 154.399 170.012 154.023 170.305 153.595C171.897 151.273 169.516 146.796 164.755 137.841V137.841C163.433 135.355 162.772 134.111 162.844 132.816C162.859 132.557 162.895 132.3 162.952 132.048C163.239 130.782 164.218 129.769 166.174 127.744V127.744C173.219 120.448 176.741 116.801 175.852 114.13C175.688 113.638 175.442 113.176 175.126 112.765C173.409 110.534 168.416 111.415 158.428 113.176V113.176C155.655 113.665 154.268 113.909 153.058 113.44C152.817 113.346 152.584 113.232 152.361 113.1C151.246 112.436 150.585 111.192 149.263 108.706V108.706Z" fill="url(#paint11_linear_2157_36)"/>
</g>
<defs>
<filter id="filter0_d_2157_36" x="13.751" y="176.021" width="101.398" height="118.935" filterUnits="userSpaceOnUse" color-interpolation-filters="sRGB">
<feFlood flood-opacity="0" result="BackgroundImageFix"/>
<feColorMatrix in="SourceAlpha" type="matrix" values="0 0 0 0 0 0 0 0 0 0 0 0 0 0 0 0 0 0 127 0" result="hardAlpha"/>
<feOffset dy="5.18927"/>
<feComposite in2="hardAlpha" operator="out"/>
<feColorMatrix type="matrix" values="0 0 0 0 0.886275 0 0 0 0 0.419608 0 0 0 0 0.117647 0 0 0 1 0"/>
<feBlend mode="normal" in2="BackgroundImageFix" result="effect1_dropShadow_2157_36"/>
<feBlend mode="normal" in="SourceGraphic" in2="effect1_dropShadow_2157_36" result="shape"/>
</filter>
<filter id="filter1_d_2157_36" x="355.348" y="176.021" width="101.398" height="118.935" filterUnits="userSpaceOnUse" color-interpolation-filters="sRGB">
<feFlood flood-opacity="0" result="BackgroundImageFix"/>
<feColorMatrix in="SourceAlpha" type="matrix" values="0 0 0 0 0 0 0 0 0 0 0 0 0 0 0 0 0 0 127 0" result="hardAlpha"/>
<feOffset dy="5.18927"/>
<feComposite in2="hardAlpha" operator="out"/>
<feColorMatrix type="matrix" values="0 0 0 0 0.886275 0 0 0 0 0.419608 0 0 0 0 0.117647 0 0 0 1 0"/>
<feBlend mode="normal" in2="BackgroundImageFix" result="effect1_dropShadow_2157_36"/>
<feBlend mode="normal" in="SourceGraphic" in2="effect1_dropShadow_2157_36" result="shape"/>
</filter>
<filter id="filter2_d_2157_36" x="59.5688" y="140.602" width="350.276" height="134.437" filterUnits="userSpaceOnUse" color-interpolation-filters="sRGB">
<feFlood flood-opacity="0" result="BackgroundImageFix"/>
<feColorMatrix in="SourceAlpha" type="matrix" values="0 0 0 0 0 0 0 0 0 0 0 0 0 0 0 0 0 0 127 0" result="hardAlpha"/>
<feOffset dy="5.18927"/>
<feComposite in2="hardAlpha" operator="out"/>
<feColorMatrix type="matrix" values="0 0 0 0 0.886275 0 0 0 0 0.419608 0 0 0 0 0.117647 0 0 0 1 0"/>
<feBlend mode="normal" in2="BackgroundImageFix" result="effect1_dropShadow_2157_36"/>
<feBlend mode="normal" in="SourceGraphic" in2="effect1_dropShadow_2157_36" result="shape"/>
</filter>
<filter id="filter3_d_2157_36" x="181.151" y="55.7542" width="106.173" height="106.58" filterUnits="userSpaceOnUse" color-interpolation-filters="sRGB">
<feFlood flood-opacity="0" result="BackgroundImageFix"/>
<feColorMatrix in="SourceAlpha" type="matrix" values="0 0 0 0 0 0 0 0 0 0 0 0 0 0 0 0 0 0 127 0" result="hardAlpha"/>
<feOffset dy="5.18927"/>
<feComposite in2="hardAlpha" operator="out"/>
<feColorMatrix type="matrix" values="0 0 0 0 1 0 0 0 0 0.720277 0 0 0 0 0.000989556 0 0 0 1 0"/>
<feBlend mode="normal" in2="BackgroundImageFix" result="effect1_dropShadow_2157_36"/>
<feBlend mode="normal" in="SourceGraphic" in2="effect1_dropShadow_2157_36" result="shape"/>
</filter>
<filter id="filter4_d_2157_36" x="293.236" y="95.2949" width="66.1035" height="71.6292" filterUnits="userSpaceOnUse" color-interpolation-filters="sRGB">
<feFlood flood-opacity="0" result="BackgroundImageFix"/>
<feColorMatrix in="SourceAlpha" type="matrix" values="0 0 0 0 0 0 0 0 0 0 0 0 0 0 0 0 0 0 127 0" result="hardAlpha"/>
<feOffset dy="5.18927"/>
<feComposite in2="hardAlpha" operator="out"/>
<feColorMatrix type="matrix" values="0 0 0 0 1 0 0 0 0 0.720277 0 0 0 0 0.000989556 0 0 0 1 0"/>
<feBlend mode="normal" in2="BackgroundImageFix" result="effect1_dropShadow_2157_36"/>
<feBlend mode="normal" in="SourceGraphic" in2="effect1_dropShadow_2157_36" result="shape"/>
</filter>
<filter id="filter5_d_2157_36" x="109.883" y="95.2949" width="66.1035" height="71.6292" filterUnits="userSpaceOnUse" color-interpolation-filters="sRGB">
<feFlood flood-opacity="0" result="BackgroundImageFix"/>
<feColorMatrix in="SourceAlpha" type="matrix" values="0 0 0 0 0 0 0 0 0 0 0 0 0 0 0 0 0 0 127 0" result="hardAlpha"/>
<feOffset dy="5.18927"/>
<feComposite in2="hardAlpha" operator="out"/>
<feColorMatrix type="matrix" values="0 0 0 0 1 0 0 0 0 0.720277 0 0 0 0 0.000989556 0 0 0 1 0"/>
<feBlend mode="normal" in2="BackgroundImageFix" result="effect1_dropShadow_2157_36"/>
<feBlend mode="normal" in="SourceGraphic" in2="effect1_dropShadow_2157_36" result="shape"/>
</filter>
<linearGradient id="paint0_linear_2157_36" x1="175.438" y1="6.56837" x2="198.045" y2="193.484" gradientUnits="userSpaceOnUse">
<stop stop-color="#FFDF6E" stop-opacity="0"/>
<stop offset="1" stop-color="#FFCD1B" stop-opacity="0.5"/>
</linearGradient>
<linearGradient id="paint1_linear_2157_36" x1="294.586" y1="4.91172" x2="274.096" y2="192.072" gradientUnits="userSpaceOnUse">
<stop stop-color="#FFDF6E" stop-opacity="0"/>
<stop offset="1" stop-color="#FFCD1B" stop-opacity="0.5"/>
</linearGradient>
<linearGradient id="paint2_linear_2157_36" x1="82.3926" y1="52.4923" x2="129.362" y2="207.12" gradientUnits="userSpaceOnUse">
<stop stop-color="#FFDF6E" stop-opacity="0"/>
<stop offset="1" stop-color="#FFCD1B" stop-opacity="0.5"/>
</linearGradient>
<linearGradient id="paint3_linear_2157_36" x1="388.145" y1="49.7789" x2="342.929" y2="204.929" gradientUnits="userSpaceOnUse">
<stop stop-color="#FFDF6E" stop-opacity="0"/>
<stop offset="1" stop-color="#FFCD1B" stop-opacity="0.5"/>
</linearGradient>
<linearGradient id="paint4_linear_2157_36" x1="24.8222" y1="124.902" x2="78.0198" y2="227.345" gradientUnits="userSpaceOnUse">
<stop stop-color="#FFDF6E" stop-opacity="0"/>
<stop offset="1" stop-color="#FFCD1B" stop-opacity="0.5"/>
</linearGradient>
<linearGradient id="paint5_linear_2157_36" x1="446.532" y1="121.532" x2="394.497" y2="224.571" gradientUnits="userSpaceOnUse">
<stop stop-color="#FFDF6E" stop-opacity="0"/>
<stop offset="1" stop-color="#FFCD1B" stop-opacity="0.5"/>
</linearGradient>
<linearGradient id="paint6_linear_2157_36" x1="36.8659" y1="123.088" x2="58.2716" y2="234.009" gradientUnits="userSpaceOnUse">
<stop stop-color="#FFCF25"/>
<stop offset="1" stop-color="#FD8C43"/>
</linearGradient>
<linearGradient id="paint7_linear_2157_36" x1="433.631" y1="123.088" x2="412.225" y2="234.009" gradientUnits="userSpaceOnUse">
<stop stop-color="#FFCF25"/>
<stop offset="1" stop-color="#FD8C43"/>
</linearGradient>
<linearGradient id="paint8_linear_2157_36" x1="234.707" y1="71.8439" x2="234.707" y2="210.657" gradientUnits="userSpaceOnUse">
<stop stop-color="#FFCF25"/>
<stop offset="1" stop-color="#FD8C43"/>
</linearGradient>
<linearGradient id="paint9_linear_2157_36" x1="234.238" y1="60.7505" x2="234.238" y2="140.919" gradientUnits="userSpaceOnUse">
<stop stop-color="#FFF2C2"/>
<stop offset="1" stop-color="#FFCF25"/>
</linearGradient>
<linearGradient id="paint10_linear_2157_36" x1="330.255" y1="97.823" x2="321.306" y2="148.577" gradientUnits="userSpaceOnUse">
<stop stop-color="#FFF2C2"/>
<stop offset="1" stop-color="#FFCF25"/>
</linearGradient>
<linearGradient id="paint11_linear_2157_36" x1="138.967" y1="97.823" x2="147.917" y2="148.577" gradientUnits="userSpaceOnUse">
<stop stop-color="#FFF2C2"/>
<stop offset="1" stop-color="#FFCF25"/>
</linearGradient>
</defs>
</svg>
